<svg width="279" height="280" viewBox="0 0 279 280" fill="none" xmlns="http://www.w3.org/2000/svg">
<path d="M68.8885 186.199H209.495V247.65H68.8885V186.199Z" fill="white"/>
<path d="M214.386 199.103C214.386 178.894 206.463 159.512 192.362 145.222C178.26 130.932 159.134 122.903 139.192 122.903C119.249 122.903 100.123 130.932 86.0216 145.222C71.92 159.512 63.9978 178.894 63.9978 199.103L139.192 199.103H214.386Z" fill="white"/>
<path fill-rule="evenodd" clip-rule="evenodd" d="M139.497 218.153C182.545 218.153 217.442 183.075 217.442 139.803C217.442 96.5306 182.545 61.4517 139.497 61.4517C96.4496 61.4517 61.5525 96.5306 61.5525 139.803C61.5525 183.075 96.4496 218.153 139.497 218.153ZM139.497 279.605C216.308 279.605 278.576 217.013 278.576 139.803C278.576 62.5917 216.308 0 139.497 0C62.6866 0 0.419189 62.5917 0.419189 139.803C0.419189 217.013 62.6866 279.605 139.497 279.605Z" fill="white"/>
</svg>
